<svg version="1.1" xmlns="http://www.w3.org/2000/svg" xmlns:xlink="http://www.w3.org/1999/xlink" width="512.000000pt" height="512.000000pt" viewBox="0,0,256,256"><g fill="#646669" fill-rule="nonzero" stroke="none" stroke-width="1" stroke-linecap="butt" stroke-linejoin="miter" stroke-miterlimit="10" stroke-dasharray="" stroke-dashoffset="0" font-family="none" font-weight="none" font-size="none" text-anchor="none" style="mix-blend-mode: normal"><path d="M128,256c-70.69245,0 -128,-57.30755 -128,-128v0c0,-70.69245 57.30755,-128 128,-128v0c70.69245,0 128,57.30755 128,128v0c0,70.69245 -57.30755,128 -128,128z" id="shape"></path></g><g fill="#f2f3f4" fill-rule="nonzero" stroke="none" stroke-width="1" stroke-linecap="butt" stroke-linejoin="miter" stroke-miterlimit="10" stroke-dasharray="" stroke-dashoffset="0" font-family="none" font-weight="none" font-size="none" text-anchor="none" style="mix-blend-mode: normal"><g transform="translate(-0.02296,0.08592) scale(0.5,0.5)"><g transform="translate(0,512) scale(0.1,-0.1)"><path d="M2430,5104c-265,-56 -459,-286 -460,-543c0,-149 53,-274 165,-387c115,-116 258,-174 430,-174c172,0 313,57 431,175c118,118 173,262 161,423c-25,343 -370,583 -727,506z"></path><path d="M1513,4240c-453,-94 -760,-265 -869,-486c-37,-73 -39,-83 -39,-169c0,-85 2,-96 38,-169c44,-88 118,-170 214,-234c318,-215 894,-338 1488,-318c660,22 1161,174 1397,425c186,197 179,419 -19,616c-62,61 -136,111 -248,167c-131,66 -127,66 -160,16c-16,-24 -58,-74 -94,-112c-115,-119 -236,-193 -398,-243c-81,-25 -102,-27 -258,-27c-156,0 -177,2 -258,27c-156,48 -257,107 -376,221c-82,80 -138,157 -183,252c-36,77 -29,76 -235,34z"></path><path d="M3890,3009c-115,-100 -339,-219 -535,-284c-617,-205 -1455,-218 -2123,-34l-113,32l-45,-44c-27,-26 -62,-78 -85,-125c-69,-138 -65,-276 12,-411c238,-417 1198,-669 2224,-582c796,67 1378,342 1470,694c78,300 -168,576 -664,749c-57,20 -104,36 -104,36c-1,-1 -18,-15 -37,-31z"></path><path d="M1005,1572c-400,-175 -612,-419 -592,-682c30,-403 583,-722 1462,-844c236,-33 367,-41 685,-41c316,0 440,8 685,41c665,89 1177,311 1369,591c148,218 123,451 -73,655c-67,71 -236,198 -263,198c-6,0 -53,-16 -105,-36c-408,-152 -1022,-233 -1565,-205c-570,29 -1027,134 -1384,317c-58,30 -107,54 -107,54c-1,0 -51,-22 -112,-48z"></path></g></g></g></svg>